<svg xmlns="http://www.w3.org/2000/svg" width="56" height="56" viewBox="0 0 56 56"><defs><style>.a{fill:#ebf0f5;}.b{fill:none;}.c{fill:#c4c8cc;}</style></defs><g transform="translate(-927 -475)"><g transform="translate(927 475)"><circle class="a" cx="28" cy="28" r="28"/></g><g transform="translate(939 487)"><path class="b" d="M0,0H32V32H0Z"/><path class="c" d="M10,21.6H22v2.8H10ZM10,16H22v2.8H10ZM19,2H7A2.914,2.914,0,0,0,4,4.8V27.2A2.9,2.9,0,0,0,6.985,30H25a2.914,2.914,0,0,0,3-2.8V10.4Zm6,25.2H7V4.8H17.5v7H25Z"/></g></g></svg>