<svg xmlns="http://www.w3.org/2000/svg" width="57.06" height="40" viewBox="0 0 57.06 40"><defs><style>.a{fill:#fff;}</style></defs><path class="a" d="M261.005,0A13.143,13.143,0,0,0,247.9,13.118v5.126h2.216V13.118A10.9,10.9,0,0,1,261.005,2.227h12.5V18.244h2.217V0Z" transform="translate(-241.605)"/><path class="a" d="M273.508,1349.4v3.314H250.116V1349.4H247.9v5.541h27.828V1349.4Z" transform="translate(-241.605 -1314.941)"/><g transform="translate(0 20.616)"><path class="a" d="M6.295,816.807a3.279,3.279,0,0,1-2.579,1.265C1.6,818.072,0,816.479,0,813.687c0-2.74,1.577-4.4,3.71-4.4a3.226,3.226,0,0,1,2.583,1.282V806.3H8.512v11.566H6.295Zm0-4.611a2.42,2.42,0,0,0-1.907-.955,2.461,2.461,0,0,0,0,4.873,2.417,2.417,0,0,0,1.907-.955Z" transform="translate(0 -806.3)"/><path class="a" d="M434.3,928.055a4.43,4.43,0,1,1,4.421,4.406,4.243,4.243,0,0,1-4.421-4.406Zm6.572,0a2.161,2.161,0,1,0-2.151,2.445A2.21,2.21,0,0,0,440.87,928.055Z" transform="translate(-423.206 -920.685)"/><path class="a" d="M864.859,923.8a3.859,3.859,0,0,1,3.311,1.526l-1.44,1.335a2.074,2.074,0,0,0-1.77-.9,2.442,2.442,0,0,0,0,4.873,2.123,2.123,0,0,0,1.77-.9l1.44,1.335a3.862,3.862,0,0,1-3.311,1.526,4.4,4.4,0,1,1,0-8.794Z" transform="translate(-838.449 -920.813)"/><path class="a" d="M1259.611,814.641l-1,1.074v2.151H1256.4V806.3h2.216v6.919l3.161-3.728h2.7l-3.311,3.8,3.415,4.578h-2.758Z" transform="translate(-1224.314 -806.3)"/><path class="a" d="M1624.745,923.8c2.5,0,4.195,1.871,4.195,4.611v.485h-6.224a2.255,2.255,0,0,0,2.409,1.942,3.426,3.426,0,0,0,2.237-.833l.97,1.422a5.169,5.169,0,0,1-3.45,1.163,4.4,4.4,0,0,1-.137-8.791Zm-2.065,3.606h4.126a1.94,1.94,0,0,0-2.065-1.858,2.014,2.014,0,0,0-2.06,1.858Z" transform="translate(-1578.982 -920.817)"/><path class="a" d="M2017.286,850.383v-4.367H2015.9v-1.924h1.386V841.8h2.219v2.29h1.7v1.924h-1.7V849.8c0,.521.277.919.761.919a1.191,1.191,0,0,0,.762-.244l.465,1.666a2.721,2.721,0,0,1-1.839.538A2.092,2.092,0,0,1,2017.286,850.383Z" transform="translate(-1964.433 -840.898)"/></g></svg>