<svg xmlns="http://www.w3.org/2000/svg" xmlns:xlink="http://www.w3.org/1999/xlink" width="1366" height="56" viewBox="0 0 1366 56"><defs><style>.a{fill:#bf0909;}.b,.i,.j{fill:none;}.c{clip-path:url(#a);}.d{fill:#2e2d2c;}.e{fill:#555488;}.f{clip-path:url(#b);}.g{fill:#542f61;}.h{fill:#fff;}.i,.j{stroke:#555488;stroke-miterlimit:10;stroke-width:0.271px;}.i{stroke-dasharray:12;}</style><clipPath id="a"><rect class="a" width="1366" height="56"/></clipPath><clipPath id="b"><rect class="b" width="1366.885" height="466.528"/></clipPath></defs><g class="c"><g transform="translate(-105.903 -64.457)"><rect class="d" width="1366.885" height="466.528" transform="translate(105.2 38.342)"/><path class="e" d="M92.1-.795,6.316,90.552H65.893L151.19-.795Z" transform="translate(131.986 37.045)"/><path class="e" d="M1122.63,18.524,12.025,18.085,41.253,49.52l1110.366.177Z" transform="translate(156.195 78.074)"/><path class="e" d="M194.109,192.671l59.577-63.429H212.31l-59.218,63.429Z" transform="translate(754.442 319.641)"/><path class="e" d="M46.7,150.852l722.73.3-20.292-21.828L26.577,129.2Z" transform="translate(217.909 319.558)"/><g class="f" transform="translate(105.2 38.342)"><path class="e" d="M562.7,319.322H0L217.906,96.293H780.6Z" transform="translate(0 209.692)"/><path class="g" d="M472.665,572.263H41.751L615.626-20.1h430.9Z" transform="translate(177.058 -43.248)"/><path class="e" d="M615.927,202.931H125.359L343.265-20.1H833.837Z" transform="translate(531.628 -43.248)"/></g><path class="h" d="M45.914,82.083a11.809,11.809,0,0,0,6.234,1.653c1.841,0,2.957-.585,2.957-1.351,0-.934-1.5-1.373-3.654-1.864-3.306-.723-7.734-1.584-7.734-4.867,0-2.492,3.2-4.734,9.005-4.734a17.727,17.727,0,0,1,8.231,1.773l-2.886,2.8A11.422,11.422,0,0,0,52.643,74.2c-1.734,0-2.58.538-2.58,1.235,0,.861,1.464,1.256,3.654,1.747,3.313.723,7.7,1.7,7.7,4.846,0,2.957-3.384,4.958-9.2,4.958-4.151,0-7.108-.766-9.24-2.023Z" transform="translate(287.456 192.889)"/><path class="h" d="M57.523,82.679a8.367,8.367,0,0,1-4.89,1.373,7.973,7.973,0,0,1-4.242-1.1,2.864,2.864,0,0,1-1.566-2.627,2.746,2.746,0,0,1,1.558-2.593,7.777,7.777,0,0,1,4.25-1,8.318,8.318,0,0,1,4.89,1.291V76.743c0-1.05-1.195-1.747-3.27-1.747a9.856,9.856,0,0,0-4.577,1.162L47.707,73.9a16.843,16.843,0,0,1,7.62-1.634c4.229,0,7.734,1.1,7.734,4.123V83.8H57.524Zm0-2.866a3.883,3.883,0,0,0-2.7-.861c-1.327,0-2.4.651-2.4,1.455s1.076,1.455,2.4,1.455a3.845,3.845,0,0,0,2.7-.882Z" transform="translate(303.703 195.814)"/><path class="h" d="M61.135,82.684a8.368,8.368,0,0,1-4.89,1.373A7.972,7.972,0,0,1,52,82.961a2.864,2.864,0,0,1-1.566-2.627,2.746,2.746,0,0,1,1.558-2.593,7.776,7.776,0,0,1,4.25-1,8.306,8.306,0,0,1,4.89,1.291V76.745c0-1.05-1.195-1.747-3.27-1.747a9.917,9.917,0,0,0-4.577,1.162L51.312,73.9a16.794,16.794,0,0,1,7.613-1.634c4.265,0,7.734,1.1,7.734,4.123V83.8H61.122Zm0-2.866a3.874,3.874,0,0,0-2.7-.861c-1.327,0-2.4.651-2.4,1.455s1.076,1.455,2.4,1.455a3.835,3.835,0,0,0,2.7-.882Z" transform="translate(319.02 195.808)"/><path class="h" d="M56.184,80.158a12.484,12.484,0,0,0,5.274,1.332c1.535,0,2.3-.349,2.3-.908s-1.152-.818-2.765-1.072c-2.658-.43-6.4-1-6.4-3.705,0-1.885,2.5-3.542,7.236-3.542a16.28,16.28,0,0,1,6.845,1.425l-2.132,2.259a9.873,9.873,0,0,0-4.656-1.119c-1.195,0-2.04.3-2.04.792s1,.744,2.623,1c2.73.43,6.61,1.046,6.61,3.817,0,2.122-2.922,3.631-7.5,3.631a16.028,16.028,0,0,1-7.62-1.605Z" transform="translate(334.052 195.813)"/><path class="h" d="M49.351,74.2a4.366,4.366,0,0,1-2.609.775C44.61,74.975,43,74,43,72.3s1.585-2.69,3.739-2.69a4.262,4.262,0,0,1,2.609.783v-2.6h2.232v7.058H49.351Zm0-2.815a3.2,3.2,0,0,0-1.926-.581c-1.225.1-2.136.738-2.136,1.487s.911,1.383,2.136,1.487a3.23,3.23,0,0,0,1.926-.581Z" transform="translate(287.573 186.091)"/><path class="h" d="M44.962,71.072c-.012-1.1,1.072-2.09,2.743-2.514a6.747,6.747,0,0,1,4.884.579c1.284.775,1.668,1.942.973,2.955a5.09,5.09,0,0,1-4.144,1.669,6.03,6.03,0,0,1-3.206-.751,2.185,2.185,0,0,1-1.25-1.939Zm6.624,0a1.062,1.062,0,0,0-.55-1.027,3,3,0,0,0-1.618-.453,2.949,2.949,0,0,0-1.6.456,1.037,1.037,0,0,0-.528,1.024c-.118.508.264,1.012.978,1.289a3.4,3.4,0,0,0,2.342,0c.714-.277,1.1-.78.978-1.289Z" transform="translate(295.864 187.304)"/><path class="h" d="M51.459,68.361a5.194,5.194,0,0,1,3.341.93l-1.421.818a2.686,2.686,0,0,0-1.784-.551c-1.309.039-2.338.693-2.338,1.487s1.029,1.448,2.338,1.487a2.755,2.755,0,0,0,1.784-.551l1.421.813a5.187,5.187,0,0,1-3.341.934,5.56,5.56,0,0,1-3.987-1.31,1.824,1.824,0,0,1,0-2.747,5.56,5.56,0,0,1,3.987-1.31Z" transform="translate(303.875 187.324)"/><path class="h" d="M51.876,72.88l-1.01.654v1.313H48.642V67.789h2.225v4.222l3.2-2.277h2.722l-3.334,2.32,3.441,2.793H54.116Z" transform="translate(311.483 186.09)"/><path class="h" d="M54.749,68.363c2.516,0,4.229,1.14,4.229,2.815v.3H52.7c.166.722,1.231,1.241,2.431,1.184a4.928,4.928,0,0,0,2.253-.508l.981.861a7.586,7.586,0,0,1-3.476.71,5.631,5.631,0,0,1-4.009-1.274,1.824,1.824,0,0,1-.073-2.741,5.469,5.469,0,0,1,3.94-1.351Zm-2.082,2.2h4.165a1.1,1.1,0,0,0-.649-.83,2.845,2.845,0,0,0-1.433-.3c-1.092-.018-2.012.49-2.083,1.15Z" transform="translate(318.192 187.319)"/><path class="h" d="M53.435,73.2V70.53H52.014V69.355h1.421V67.963h2.239v1.392h1.713V70.53H55.674v2.307c0,.318.277.564.768.564a1.72,1.72,0,0,0,.768-.151l.476,1.02a4.183,4.183,0,0,1-1.855.327,3.076,3.076,0,0,1-1.761-.345,1.058,1.058,0,0,1-.635-1.053Z" transform="translate(325.781 186.47)"/><path class="e" d="M62.525,87.952H25.77L40.007,73.384H76.763Z" transform="translate(214.484 198.249)"/><path class="g" d="M56.645,104.475H28.5l37.488-38.7H94.133Z" transform="translate(226.051 181.725)"/><path class="e" d="M66,80.348H33.959L48.189,65.78H80.24Z" transform="translate(249.213 181.725)"/><path class="i" d="M321.273,105.105h-104.8l46.551-47.647h104.8Z" transform="translate(1023.228 163.639)"/><path class="i" d="M321.273,120.121h-104.8l46.551-47.647h104.8Z" transform="translate(1023.228 196.271)"/><ellipse class="j" cx="269.681" cy="163.285" rx="269.681" ry="163.285" transform="translate(1202.406 341.585)"/><line class="j" x1="285.219" y1="172.693" transform="translate(1186.868 332.178)"/><path class="i" d="M339.035,61.414,159.885,246.287H419.16L573.9,339.971" transform="translate(783.246 172.237)"/><line class="j" y1="117.45" x2="113.807" transform="translate(615.917 103.574)"/><line class="i" x1="480.507" transform="translate(151.403 147.658)"/><line class="i" x1="480.507" transform="translate(0 316.391)"/><ellipse class="e" cx="9.724" cy="5.888" rx="9.724" ry="5.888" transform="translate(131.954 141.771)"/><ellipse class="e" cx="9.724" cy="5.888" rx="9.724" ry="5.888" transform="translate(1111.956 227.764)"/><ellipse class="g" cx="9.724" cy="5.888" rx="9.724" ry="5.888" transform="translate(607.529 213.755)"/><ellipse class="g" cx="9.724" cy="5.888" rx="9.724" ry="5.888" transform="translate(468.353 310.504)"/><ellipse class="g" cx="9.724" cy="5.888" rx="9.724" ry="5.888" transform="translate(1177.2 326.324)"/><line class="i" y2="47.647" transform="translate(1239.702 268.745)"/><line class="i" y2="47.647" transform="translate(1344.504 268.745)"/><line class="i" y2="47.647" transform="translate(1391.055 221.097)"/><line class="i" y1="47.647" transform="translate(1286.253 221.097)"/><path class="i" d="M131.506,26.554H46.224L84.1-12.219h85.287Z" transform="translate(301.227 12.219)"/><path class="i" d="M131.506,38.773H46.224L84.1,0h85.287Z" transform="translate(301.227 38.773)"/><line class="i" y2="38.773" transform="translate(347.451 38.773)"/><line class="i" y2="38.773" transform="translate(432.734 38.773)"/><path class="i" d="M150.684,85.406H65.4l37.879-38.768h85.283Z" transform="translate(382.54 140.125)"/><path class="i" d="M150.684,97.627H65.4l37.879-38.773h85.283Z" transform="translate(382.54 166.674)"/><line class="i" y2="38.773" transform="translate(447.938 225.53)"/><line class="i" y2="38.773" transform="translate(533.221 225.53)"/><line class="i" y2="38.768" transform="translate(571.101 186.762)"/><line class="i" y1="38.768" transform="translate(485.817 186.762)"/><path class="i" d="M103.095,144.567H.582l45.534-46.6H148.634Z" transform="translate(107.668 251.668)"/><path class="i" d="M103.095,159.255H.582l45.534-46.6H148.634Z" transform="translate(107.668 283.586)"/><line class="i" y2="46.606" transform="translate(210.763 396.235)"/><line class="i" y2="46.606" transform="translate(256.297 349.63)"/><line class="i" y1="46.606" transform="translate(153.784 349.63)"/></g></g><g transform="translate(30 8)"><path class="h" d="M261.005,0A13.143,13.143,0,0,0,247.9,13.118v5.126h2.216V13.118A10.9,10.9,0,0,1,261.005,2.227h12.5V18.244h2.217V0Z" transform="translate(-241.605)"/><path class="h" d="M273.508,1349.4v3.314H250.116V1349.4H247.9v5.541h27.828V1349.4Z" transform="translate(-241.605 -1314.941)"/><g transform="translate(0 20.616)"><path class="h" d="M6.295,816.807a3.279,3.279,0,0,1-2.579,1.265C1.6,818.072,0,816.479,0,813.687c0-2.74,1.577-4.4,3.71-4.4a3.226,3.226,0,0,1,2.583,1.282V806.3H8.512v11.566H6.295Zm0-4.611a2.42,2.42,0,0,0-1.907-.955,2.461,2.461,0,0,0,0,4.873,2.417,2.417,0,0,0,1.907-.955Z" transform="translate(0 -806.3)"/><path class="h" d="M434.3,928.055a4.43,4.43,0,1,1,4.421,4.406,4.243,4.243,0,0,1-4.421-4.406Zm6.572,0a2.161,2.161,0,1,0-2.151,2.445A2.21,2.21,0,0,0,440.87,928.055Z" transform="translate(-423.206 -920.685)"/><path class="h" d="M864.859,923.8a3.859,3.859,0,0,1,3.311,1.526l-1.44,1.335a2.074,2.074,0,0,0-1.77-.9,2.442,2.442,0,0,0,0,4.873,2.123,2.123,0,0,0,1.77-.9l1.44,1.335a3.862,3.862,0,0,1-3.311,1.526,4.4,4.4,0,1,1,0-8.794Z" transform="translate(-838.449 -920.813)"/><path class="h" d="M1259.611,814.641l-1,1.074v2.151H1256.4V806.3h2.216v6.919l3.161-3.728h2.7l-3.311,3.8,3.415,4.578h-2.758Z" transform="translate(-1224.314 -806.3)"/><path class="h" d="M1624.745,923.8c2.5,0,4.195,1.871,4.195,4.611v.485h-6.224a2.255,2.255,0,0,0,2.409,1.942,3.426,3.426,0,0,0,2.237-.833l.97,1.422a5.169,5.169,0,0,1-3.45,1.163,4.4,4.4,0,0,1-.137-8.791Zm-2.065,3.606h4.126a1.94,1.94,0,0,0-2.065-1.858,2.014,2.014,0,0,0-2.06,1.858Z" transform="translate(-1578.982 -920.817)"/><path class="h" d="M2017.286,850.383v-4.367H2015.9v-1.924h1.386V841.8h2.219v2.29h1.7v1.924h-1.7V849.8c0,.521.277.919.761.919a1.191,1.191,0,0,0,.762-.244l.465,1.666a2.721,2.721,0,0,1-1.839.538A2.092,2.092,0,0,1,2017.286,850.383Z" transform="translate(-1964.433 -840.898)"/></g></g></svg>